PathFileType	4	(X/Y/Z)	S01_0012_Gait_markers.trc
DataRate	CameraRate	NumFrames	NumMarkers	Units	OrigDataRate	OrigDataStartFrame	OrigNumFrames
250.000000	250.000000	4	54	mm	250.000000	0	321
Frame#	Time	HEAD_ANT			R_HEAD			L_HEAD			C7			R_BACK			L_BACK			STERNUM			R_ACROMION			R_HUM_PROX			R_HUM_ANT			R_HUM_POST			R_ELBOW_LAT			R_ELBOW_MED			R_FOREARM			R_WIRST_LAT			R_WRITS_MED			R_HAND			L_ACROMION			L_HUM_PROX			L_HUM_ANT			L_HUM_POST			L_ELBOW_LAT			L_ELBOW_MED			L_FOREARM			L_WRIST_LAT			L_WIRST_MED			L_HAND			R_ILIAC			SACRUM			L_ILIAC			R_GTROCH			R_THIGH__1			R_THIGH_2			R_THIGH_3			R_THIGH_4			R_SHANK_1			R_SHANK_2			R_SHANK_3			R_SHANK_4			R_HEEL			R_FOOT_LAT			R_FOOT_MED			L_GTROCH			L_THIGH_1			L_THIGH_2			L_THIGH_3			L_THIGH_4			L_SHANK_1			L_SHANK_2			L_SHANK_3			L_SHANK_4			L_HEEL			L_FOOT_LAT			L_FOOT_MED			
		X1	Y1	Z1	X2	Y2	Z2	X3	Y3	Z3	X4	Y4	Z4	X5	Y5	Z5	X6	Y6	Z6	X7	Y7	Z7	X8	Y8	Z8	X9	Y9	Z9	X10	Y10	Z10	X11	Y11	Z11	X12	Y12	Z12	X13	Y13	Z13	X14	Y14	Z14	X15	Y15	Z15	X16	Y16	Z16	X17	Y17	Z17	X18	Y18	Z18	X19	Y19	Z19	X20	Y20	Z20	X21	Y21	Z21	X22	Y22	Z22	X23	Y23	Z23	X24	Y24	Z24	X25	Y25	Z25	X26	Y26	Z26	X27	Y27	Z27	X28	Y28	Z28	X29	Y29	Z29	X30	Y30	Z30	X31	Y31	Z31	X32	Y32	Z32	X33	Y33	Z33	X34	Y34	Z34	X35	Y35	Z35	X36	Y36	Z36	X37	Y37	Z37	X38	Y38	Z38	X39	Y39	Z39	X40	Y40	Z40	X41	Y41	Z41	X42	Y42	Z42	X43	Y43	Z43	X44	Y44	Z44	X45	Y45	Z45	X46	Y46	Z46	X47	Y47	Z47	X48	Y48	Z48	X49	Y49	Z49	X50	Y50	Z50	X51	Y51	Z51	X52	Y52	Z52	X53	Y53	Z53	X54	Y54	Z54	

1	0	142.5462646484375	1732.553955078125	-329.1681213378902	80.69138336181641	1681.06982421875	-254.8457794189449	85.52920532226562	1686.92822265625	-402.6166992187496	-57.92404174804688	1516.570434570312	-342.6746215820309	-136.6932830810547	1321.107177734375	-279.1846008300778	-124.4852905273438	1324.378173828125	-421.9533081054685	114.8796081542969	1352.431884765625	-324.5472412109372	2.269011974334717	1471.147583007812	-163.8373870849606	-63.78589248657227	1317.970947265625	-75.95387268066376	-13.33574485778809	1227.358520507812	-58.46134185790989	-132.7714538574219	1241.142333984375	-73.06300354003879	-96.44516754150391	1131.203002929688	-53.82825088500952	-104.6823654174805	1125.609130859375	-134.9894104003904	-7.059498310089111	944.5519409179688	-32.77163696289041	33.48732376098633	878.0075073242188	-64.58464813232402	-37.9140625	855.076416015625	-39.30513381957989	29.85449981689453	789.5575561523438	-11.52532482147199	35.54105758666992	1471.48388671875	-501.4551391601559	32.46604919433594	1306.333374023438	-599.8898925781247	97.42176055908203	1228.477172851563	-589.2638549804685	-17.8673152923584	1226.540405273438	-633.8012695312498	46.41366195678711	1125.455078125	-634.981018066406	-13.67446041107178	1114.2138671875	-585.3797607421873	176.8798675537109	972.7468261718751	-582.610168457031	212.2811126708984	925.6547241210939	-521.9655151367185	181.4484710693359	888.0585327148439	-585.7804565429685	266.7247924804688	854.5788574218751	-554.8034667968748	4.926441192626953	1070.307006835938	-161.5917816162107	-119.8485717773438	1043.956787109375	-325.6015014648435	2.99757719039917	1061.01806640625	-503.4634094238279	-27.34229278564453	917.3650512695312	-141.5457916259764	85.19328308105469	647.0458374023438	-158.8636016845702	135.0303955078125	678.8733520507812	-154.0501251220702	168.4868927001953	581.53076171875	-187.4820861816405	104.8913269042969	569.2117919921875	-177.7703704833983	143.8630981445312	351.7726440429688	-172.375991821289	202.5708618164062	343.9726257324219	-184.2168731689452	219.2117919921875	260.7557067871094	-197.0115356445312	155.378173828125	252.3062133789063	-191.6362304687499	174.7017364501953	36.92219543457038	-276.7539672851562	333.7406616210938	43.9586448669434	-185.1243743896484	383.7406616210938	75.97637176513678	-270.2242736816406	-47.16411590576172	954.3297119140626	-504.0028381347654	-32.33132934570312	660.6514282226564	-484.5253906249998	-80.38184356689453	692.8078613281251	-497.1724853515623	-114.5537796020508	600.6378784179689	-463.9646606445311	-54.22552871704102	585.9698486328126	-458.1073913574218	-160.77978515625	333.0148010253907	-439.8594970703124	-220.7935333251953	324.8255004882814	-439.3508605957031	-241.7305755615234	242.0606079101563	-418.3004150390624	-177.8583374023438	234.6208648681641	-412.6654663085937	-316.0715942382812	66.76998901367195	-338.9538879394531	-146.7291564941406	19.89981842041025	-409.8683166503906	-107.7574157714844	29.11577033996589	-304.2352905273438	
2	0.004	148.1351318359375	1731.28955078125	-328.6328735351559	86.24326324462891	1679.813598632812	-254.4967193603512	91.13050079345703	1685.76123046875	-402.2633666992184	-52.34651184082031	1515.353759765625	-342.3628234863278	-131.9628753662109	1320.00244140625	-279.1322937011716	-118.9060745239258	1323.134643554688	-421.6010437011716	120.3893127441406	1350.9970703125	-324.3839721679685	7.763084411621094	1469.744262695312	-163.4073791503903	-58.33492660522461	1316.50634765625	-75.80274200439423	-7.923868179321289	1225.794067382812	-58.54909896850559	-127.5431747436523	1239.83251953125	-72.61405181884739	-91.28338623046875	1129.922973632812	-53.93915557861303	-99.50016784667969	1124.192504882812	-135.1034088134763	-1.58834969997406	943.0421142578125	-32.75904083251933	38.97201156616211	876.7315673828125	-64.68503570556621	-32.49801635742188	853.5213012695312	-39.1368865966795	35.13730239868164	788.202392578125	-11.41143417358381	41.28507232666016	1470.28564453125	-501.1420593261715	38.18706130981445	1305.160766601563	-599.7896728515622	103.3261337280273	1227.5068359375	-589.211242675781	-11.66574096679688	1225.088623046875	-633.6439208984373	52.64490127563477	1124.330078125	-634.786682128906	-7.49355936050415	1112.910400390625	-585.236389160156	183.4498901367188	972.0532836914064	-582.1412963867185	218.8728942871094	925.2208251953126	-521.4659423828123	188.3448944091797	887.3725585937501	-585.3579101562498	273.6661071777344	854.2370605468751	-554.007873535156	10.36269855499268	1068.728759765625	-161.4839172363279	-114.4883575439453	1042.884887695312	-325.2694091796873	8.597302436828613	1059.72412109375	-503.3688964843748	-21.69498825073242	915.8786010742188	-141.6101684570311	89.75460815429688	645.2537231445312	-158.9734039306639	139.6905212402344	677.16552734375	-153.9738769531249	173.3833465576172	580.07666015625	-187.1027374267577	109.6585998535156	567.4103393554688	-177.9515991210936	152.9312896728516	350.2663574218751	-172.446060180664	211.7919464111328	343.9540710449219	-184.5981140136718	230.135986328125	261.1901855468751	-197.6549835205078	166.6726531982422	250.8467559814454	-192.3404846191406	190.1643829345703	36.69653701782233	-278.1021728515625	349.2407836914062	46.20403289794926	-186.5326843261719	398.3347778320312	79.38749694824224	-272.094970703125	-42.20211029052734	953.6013183593751	-503.8722534179685	-28.69784545898438	659.9109497070314	-484.4203491210936	-76.76531982421875	692.3161010742189	-496.7881774902342	-110.9075012207031	600.5626831054689	-464.2532958984374	-51.09500503540039	585.1785278320314	-458.3523559570311	-158.9206237792969	332.8660888671876	-439.8922424316406	-219.3563995361328	325.1836853027345	-439.5149841308593	-240.5028228759766	242.523406982422	-418.1180114746093	-176.9177856445312	234.7847442626954	-412.9038391113281	-315.8623657226562	67.57834625244148	-338.9657592773438	-146.8207855224609	19.88504219055185	-409.8183288574219	-107.6988830566406	29.09481620788581	-304.2403869628906	
3	0.008	153.6851348876953	1729.901123046875	-328.0074768066402	91.66506195068359	1678.331420898438	-254.0567016601559	96.58232879638672	1684.420043945312	-401.8147583007809	-46.75964736938477	1514.163452148438	-342.0421752929684	-126.6544876098633	1318.603149414062	-278.9585876464841	-113.5521087646484	1321.959228515625	-421.3271179199216	125.9785079956055	1349.658203125	-324.1617126464841	13.27150821685791	1468.292724609375	-163.0854797363278	-52.9305419921875	1314.988525390625	-75.60066986083955	-2.59028148651123	1224.298583984375	-58.50640106201145	-122.0369873046875	1238.359130859375	-72.35879516601535	-85.45726013183594	1128.463623046875	-53.81459045410131	-94.13600158691406	1122.599609375	-134.8447113037107	4.042587757110596	941.657958984375	-32.58792495727518	44.50502777099609	875.2101440429688	-64.25288391113261	-26.97977447509766	852.0784912109375	-39.07434844970684	40.64051055908203	786.629638671875	-11.21124649047834	46.97688293457031	1468.923095703125	-500.9301757812497	43.85129165649414	1303.911499023438	-599.5744628906247	109.2649536132812	1226.544921875	-589.002990722656	-5.719478130340576	1223.9208984375	-633.312561035156	58.79502487182617	1123.240966796875	-634.7868652343748	-1.411426544189453	1111.558471679688	-585.4262695312498	190.055908203125	971.2816162109376	-581.5767822265623	225.5048370361328	924.5741577148439	-520.7899780273435	195.2133331298828	886.6637573242189	-584.8304443359373	280.5069885253906	853.8129272460939	-553.2919921874998	16.26044845581055	1067.276245117188	-161.3583068847654	-108.654914855957	1041.750854492188	-324.8920898437498	13.77951431274414	1058.460815429688	-503.4776916503904	-16.31346893310547	914.439697265625	-141.7188415527342	94.42256927490234	643.4342651367188	-158.8162231445311	144.242431640625	675.3370361328125	-153.5131835937499	178.0404815673828	578.3233642578125	-187.1886749267577	114.384895324707	565.7164306640625	-177.9388122558593	161.9403228759766	348.9807739257813	-172.4982299804687	220.8045043945312	343.9308776855469	-185.0784454345702	240.6097259521484	261.6347961425782	-198.8521118164062	177.5129547119141	249.7537841796876	-192.7626342773437	205.3798675537109	36.34431076049811	-279.2636108398438	364.310546875	48.39751434326176	-187.7232208251953	412.7467041015625	82.89878082275396	-273.0705871582031	-37.04601669311523	952.7875976562501	-503.8457031249998	-24.93988609313965	659.2536621093751	-484.7348632812498	-73.11106872558594	691.9062500000001	-497.2446899414061	-108.172721862793	600.1325073242189	-463.6315307617186	-47.75032806396484	584.5543823242189	-458.3825073242186	-157.4717254638672	332.7938842773439	-439.9468078613281	-217.5677337646484	325.4643554687501	-439.4980163574218	-239.2312774658203	243.0737762451173	-418.4982910156249	-175.6082611083984	235.094955444336	-413.3175659179687	-315.5438537597656	68.71551513671882	-338.6966552734375	-146.8668518066406	19.89604568481455	-409.8006286621094	-107.6564254760742	29.13140869140632	-304.3101501464844	
4	0.012	159.1581420898438	1728.861938476562	-327.4862976074215	97.27268981933594	1677.0869140625	-253.5365600585934	102.1283340454102	1683.311645507812	-401.3855590820309	-40.97880935668945	1512.705932617188	-341.7327880859372	-121.0675506591797	1317.420288085938	-278.8370971679685	-108.0026321411133	1320.852905273438	-420.9802246093747	131.6577758789062	1348.204833984375	-324.0206298828122	18.70119285583496	1466.937744140625	-162.8402862548825	-47.42745590209961	1313.526489257812	-75.6057128906247	2.849071741104126	1222.90087890625	-58.10380554199192	-116.5048370361328	1236.939331054688	-73.0771179199216	-80.0750732421875	1126.879638671875	-53.63676071166967	-88.76734161376953	1121.288330078125	-134.9241485595701	9.333531379699707	940.2275390625	-32.28308105468729	50.00230407714844	873.7625732421875	-64.15554809570293	-21.35414123535156	850.6268920898438	-39.07466888427715	46.03478240966797	785.0520629882812	-11.31434059143049	52.50449752807617	1467.670532226562	-500.6826477050778	49.70378494262695	1302.70654296875	-599.2424316406247	115.111083984375	1225.470703125	-588.7320556640623	-0.07955332100391388	1222.931030273438	-633.0424194335935	65.00437164306641	1122.063110351563	-634.5829467773435	4.708462238311768	1110.405151367188	-585.4606323242185	196.4203948974609	970.7567749023439	-581.6054077148435	232.0410003662109	923.9916992187501	-520.339416503906	202.1029205322266	885.9524536132814	-584.3309936523435	287.3878173828125	853.4059448242189	-552.470031738281	22.87350845336914	1065.903198242188	-161.0212249755857	-103.1650543212891	1040.602294921875	-324.6041259765623	19.37520790100098	1057.0712890625	-503.2390136718748	-10.67198181152344	912.9534301757812	-141.8242797851561	99.01889038085938	641.5531005859375	-158.9633331298827	148.9705505371094	673.7228393554688	-153.3430328369139	182.8434295654297	576.7626953125	-187.0577392578124	119.0571365356445	563.8048095703125	-178.2330169677733	170.9000854492188	347.7948913574219	-172.3115081787109	230.140380859375	344.2847290039063	-184.024185180664	251.2440795898438	262.0642700195313	-199.5914001464843	188.1777801513672	248.5003967285157	-193.7577209472656	220.2086944580078	36.20789718627936	-280.2921752929688	379.1566467285156	50.57469940185551	-189.0438690185547	426.7133178710938	86.38415527343756	-274.2359619140625	-31.93266677856445	951.8740234375001	-503.8132019042966	-21.17359924316406	658.5330810546876	-484.6327819824217	-69.21637725830078	691.6054077148439	-497.3749999999998	-107.3724822998047	597.6668701171876	-462.0713806152343	-44.33842468261719	584.4364013671876	-458.9735412597655	-155.6466064453125	332.6919860839845	-439.7260742187499	-215.6238708496094	325.4971313476564	-439.5822448730468	-237.8862457275391	243.4998321533204	-418.5057678222656	-174.4290771484375	235.0267333984376	-413.2708435058593	-315.3071899414062	69.53592681884773	-338.6245422363281	-146.9003448486328	19.89581871032724	-409.774658203125	-107.6166229248047	29.14755249023444	-304.3320922851562	
